<svg width="94" height="35" viewBox="0 0 94 35" fill="none" xmlns="http://www.w3.org/2000/svg">
<path fill-rule="evenodd" clip-rule="evenodd" d="M16.3292 12.9822C11.1005 9.45554 6.18797 5.48444 1.64536 1.11232L1.64587 1.1118C1.16893 0.665422 0.284137 1.30633 0.704624 1.85792C5.23992 7.61544 10.761 12.519 17.0153 16.3444C28.0148 23.2595 40.4572 27.5893 53.418 29.0121C59.9256 29.7513 66.5045 29.7415 73.0259 28.9829C76.5245 28.5424 79.9925 27.8899 83.4109 27.03L83.4691 26.9894C84.8874 26.0041 86.3075 25.0236 87.7327 24.0507C88.6215 24.6671 89.7521 23.762 89.4059 22.9142C89.953 22.5444 90.5011 22.1759 91.0504 21.8089L92.1248 24.3483C89.2651 25.3942 86.3564 26.2891 83.4109 27.03L79.9107 29.4679C80.1516 29.4 80.4145 29.4615 80.5989 29.6396C80.8245 29.8574 80.8797 30.1988 80.7349 30.4805C80.1873 31.4207 79.5633 32.277 78.9321 33.1434C78.7195 33.4353 78.506 33.7283 78.2944 34.026L75.9795 32.3325C75.5608 32.7988 75.4717 33.4953 75.8005 34.0552C76.1967 34.7297 77.0581 34.9649 77.7516 34.588C79.0784 33.8218 80.3457 32.9558 81.5424 31.9976L85.1422 29.4595C87.5979 27.7321 90.037 25.9804 92.4597 24.2041C93.0506 23.8346 93.2921 23.0944 93.0304 22.4547C92.7639 21.8122 92.059 21.4735 91.3856 21.6645C90.6338 21.9611 89.8777 22.2452 89.1176 22.5166C87.6348 21.131 86.01 19.9057 84.2701 18.861C83.3593 18.3286 82.4132 17.859 81.4383 17.4557C80.6599 17.0107 79.7692 16.8008 78.8739 16.8515C78.6081 16.9271 78.3922 17.1215 78.2894 17.3781C78.1865 17.6347 78.2083 17.9244 78.3484 18.1627C78.9457 18.7882 79.6808 19.2657 80.4951 19.5571C81.2632 19.9482 82.0142 20.3747 82.766 20.8018C82.8286 20.8373 82.8911 20.8728 82.9536 20.9083C84.2583 21.644 85.5223 22.4491 86.7402 23.3201C81.4615 25.0045 76.0098 26.0874 70.4897 26.5443C57.7937 27.6582 45.0391 25.9405 33.1467 21.5152C27.2333 19.3113 21.5923 16.4491 16.3292 12.9822ZM78.351 30.4935C78.7925 30.1888 79.2422 29.8958 79.6995 29.615L79.9107 29.4679C79.8569 29.4831 79.8042 29.5047 79.7537 29.533C79.2672 29.8362 78.8042 30.1595 78.351 30.4935ZM78.351 30.4935C77.5265 31.0628 76.7304 31.6732 75.9661 32.3227L75.9795 32.3325C76.0653 32.237 76.1648 32.1512 76.2774 32.0782C76.5604 31.864 76.839 31.6483 77.1165 31.4335C77.5268 31.116 77.9348 30.8002 78.351 30.4935Z" fill="#8082A5"/>
</svg>
