<svg width="142" height="73" viewBox="0 0 142 73" fill="none" xmlns="http://www.w3.org/2000/svg">
<path fill-rule="evenodd" clip-rule="evenodd" d="M5.60245 56.1155C2.90367 61.3089 1.93378 67.2219 2.83296 73H0.409655C-0.136552 70.0384 -0.136552 67.0025 0.409655 64.0408C1.2322 57.854 4.16545 52.1364 8.71813 47.8455C12.3688 44.5436 16.8035 42.2606 21.5739 41.1916C21.598 42.0564 21.6635 42.9204 21.7704 43.7805C20.5185 44.0056 19.2797 44.3268 18.0652 44.7442C12.7379 47.0217 8.34423 51.0305 5.60245 56.1155ZM24.4824 43.4445C23.5744 43.507 22.6691 43.619 21.7704 43.7805C21.9846 45.5035 22.3651 47.2111 22.9118 48.8792C24.2342 54.4567 27.7186 59.2874 32.605 62.3179C35.6759 63.75 39.2273 63.75 42.2982 62.3179C44.5801 61.4218 46.4357 59.6979 47.491 57.4938C48.3742 52.8771 46.4827 48.1702 42.6444 45.4334C37.8186 41.4633 31.5305 39.7108 25.3351 40.6092C25.1875 40.6221 25.0401 40.6361 24.893 40.6512C25.017 40.0588 25.1644 39.4701 25.3351 38.8863C25.9941 33.6335 28.0231 28.644 31.2203 24.4138C39.5909 15.6402 50.6904 9.93409 62.7233 8.21846C69.7185 6.97527 76.851 7.36922 83.5771 9.30029C81.9187 11.0246 80.4899 12.9759 79.3402 15.1101C76.7858 20.4511 76.7858 26.6536 79.3402 31.9947C81.4876 37.1785 86.2266 40.8474 91.8029 41.643C97.1331 42.2542 102.393 40.029 105.65 35.7851C109.307 30.4926 109.307 23.5038 105.65 18.2114C101.374 13.1227 95.9041 9.32005 89.8415 7.05132C94.1283 4.6192 98.9553 3.23896 103.919 3.04972C115.144 1.80654 126.393 5.16564 135.076 12.3535C136.611 13.3309 138.035 14.4673 139.324 15.7423L129.191 17.5222H140.961H142C141.666 16.9947 141.32 16.4771 140.961 15.9698V15.4547L140.633 15.5123C134.293 6.81322 124.448 1.23151 113.613 0.293062C106.566 -0.539454 99.4226 0.408613 92.8415 3.04972C90.8223 3.86226 88.9254 4.91191 87.1861 6.16705C82.6831 4.8485 77.9148 4.35235 73.1089 4.77264C58.9654 4.28858 45.1066 8.80538 33.9898 17.5222C29.1911 21.3986 25.3929 26.3607 22.9118 31.9947C21.9335 34.9798 21.4875 38.0913 21.5739 41.1916C22.6645 40.9472 23.7726 40.7663 24.893 40.6512C24.6994 41.5752 24.5626 42.5081 24.4824 43.4445ZM140.633 15.5123L139.324 15.7423C139.897 16.3088 140.444 16.9027 140.961 17.5222V15.9698C140.853 15.8164 140.744 15.6639 140.633 15.5123ZM85.6403 9.94524C84.9573 9.71405 84.2694 9.49903 83.5771 9.30029C84.6829 8.15062 85.8908 7.10184 87.1861 6.16705C88.0823 6.42948 88.9681 6.72448 89.8415 7.05132C88.8491 7.6143 87.8858 8.23365 86.9563 8.90763C86.5024 9.23715 86.0636 9.58339 85.6403 9.94524ZM85.6403 9.94524C88.7368 10.9933 91.7325 12.3737 94.5724 14.0764C99.3907 17.1437 102.568 22.2046 103.227 27.8597C103.568 32.7713 100.381 37.2406 95.611 38.5417C91.2028 39.9655 86.3648 38.7616 83.1483 35.4405C79.6551 31.8861 77.9959 26.9315 78.6478 22.0018C79.5382 17.2931 82.014 13.0458 85.6403 9.94524ZM24.4824 43.4445C27.7995 43.2164 31.1513 43.6497 34.3359 44.7442C38.7102 45.2767 42.5023 48.01 44.3754 51.9805C44.7764 54.0865 44.3033 56.2644 43.064 58.0174C41.8246 59.7703 39.9248 60.9489 37.7978 61.2842C34.9127 61.1354 32.1914 59.9042 30.1817 57.8384C28.1926 56.2243 26.5452 54.2332 25.3351 51.9805C24.5219 49.1989 24.2377 46.3048 24.4824 43.4445ZM141.139 9.66C141.058 8.52812 141.058 7.39188 141.139 6.26V6.94V9.66ZM141.139 9.66V10C141.083 11.0192 141.083 12.0408 141.139 13.06C141.228 14.0781 141.228 15.1019 141.139 16.12C140.679 13.9912 140.679 11.7888 141.139 9.66Z" fill="#8082A5"/>
</svg>
