<svg width="32" height="32" viewBox="0 0 32 32" fill="none" xmlns="http://www.w3.org/2000/svg">
<path fill-rule="evenodd" clip-rule="evenodd" d="M16 0C16.3784 0 16.7244 0.213767 16.894 0.552318L17.618 2.00133H27C28.6569 2.00133 30 3.34541 30 5.00342V20.0139H2V5.00342C2 3.34541 3.34315 2.00133 5 2.00133H14.38L15.106 0.552318C15.2756 0.213767 15.6216 0 16 0ZM1 22.0153C0.447715 22.0153 0 22.4633 0 23.016C0 23.5687 0.447715 24.0167 1 24.0167H6.72L5.03 30.7794C4.91073 31.3098 5.23643 31.8384 5.76354 31.97C6.29065 32.1016 6.82633 31.788 6.97 31.2637L7.78 28.0195H24.22L25.03 31.2637C25.1737 31.788 25.7094 32.1016 26.2365 31.97C26.7636 31.8384 27.0893 31.3098 26.97 30.7794L25.28 24.0167H31C31.5523 24.0167 32 23.5687 32 23.016C32 22.4633 31.5523 22.0153 31 22.0153H1ZM8.28 26.0181L8.78 24.0167H23.22L23.72 26.0181H8.28Z" fill="white"/>
</svg>
