<svg width="24" height="18" viewBox="0 0 24 18" fill="none" xmlns="http://www.w3.org/2000/svg">
<path fill-rule="evenodd" clip-rule="evenodd" d="M3 0C1.60024 -9.42171e-05 0.386447 0.967828 0.075 2.3325L12 9.621L23.925 2.3325C23.6136 0.967828 22.3998 -9.42171e-05 21 0H3ZM0 14.7015V4.0455L8.7045 9.3645L0 14.7015ZM10.1415 10.245L0.2865 16.2855C0.78351 17.3335 1.84012 18.0011 3 18H21C22.1597 18.0003 23.2157 17.3321 23.712 16.284L13.857 10.2435L12 11.379L10.1415 10.2435V10.245ZM24 14.7015L15.2955 9.366V9.3645L24 4.0455V14.7015Z" fill="white"/>
</svg>
