<svg width="32" height="32" viewBox="0 0 32 32" fill="none" xmlns="http://www.w3.org/2000/svg">
<path fill-rule="evenodd" clip-rule="evenodd" d="M17.8639 1.45491C17.3759 -0.48497 14.6221 -0.48497 14.1361 1.45491L13.9941 2.02687C13.8249 2.70379 13.3018 3.23562 12.6278 3.41597C11.9538 3.59632 11.235 3.39679 10.7503 2.89482L10.3404 2.47285C8.95044 1.03494 6.56459 2.41485 7.11456 4.33473L7.27655 4.90269C7.46742 5.57297 7.28008 6.29406 6.78707 6.78665C6.29405 7.27925 5.57281 7.46599 4.90269 7.27455L4.33473 7.11456C2.41285 6.56459 1.03494 8.95044 2.47285 10.3404L2.89482 10.7503C3.39679 11.235 3.59632 11.9538 3.41597 12.6278C3.23562 13.3018 2.70379 13.8249 2.02687 13.9941L1.45491 14.1361C-0.48497 14.6241 -0.48497 17.3779 1.45491 17.8639L2.02687 18.0059C2.70379 18.1751 3.23562 18.6982 3.41597 19.3722C3.59632 20.0462 3.39679 20.765 2.89482 21.2497L2.47285 21.6596C1.03494 23.0496 2.41485 25.4354 4.33473 24.8854L4.90269 24.7235C5.57297 24.5326 6.29406 24.7199 6.78665 25.2129C7.27925 25.7059 7.46599 26.4272 7.27455 27.0973L7.11456 27.6653C6.56459 29.5872 8.95044 30.9651 10.3404 29.5272L10.7503 29.1052C11.235 28.6032 11.9538 28.4037 12.6278 28.584C13.3018 28.7644 13.8249 29.2962 13.9941 29.9731L14.1361 30.5451C14.6241 32.485 17.3779 32.485 17.8639 30.5451L18.0059 29.9731C18.1751 29.2962 18.6982 28.7644 19.3722 28.584C20.0462 28.4037 20.765 28.6032 21.2497 29.1052L21.6596 29.5272C23.0496 30.9651 25.4354 29.5852 24.8854 27.6653L24.7235 27.0993C24.5316 26.4287 24.7186 25.7069 25.2117 25.2137C25.7049 24.7206 26.4268 24.5336 27.0973 24.7255L27.6653 24.8854C29.5872 25.4354 30.9651 23.0496 29.5272 21.6596L29.1052 21.2497C28.6032 20.765 28.4037 20.0462 28.584 19.3722C28.7644 18.6982 29.2962 18.1751 29.9731 18.0059L30.5451 17.8639C32.485 17.3759 32.485 14.6221 30.5451 14.1361L29.9731 13.9941C29.2962 13.8249 28.7644 13.3018 28.584 12.6278C28.4037 11.9538 28.6032 11.235 29.1052 10.7503L29.5272 10.3404C30.9651 8.95044 29.5852 6.56459 27.6653 7.11456L27.0993 7.27655C26.4287 7.46836 25.7069 7.28143 25.2137 6.78826C24.7206 6.29509 24.5336 5.57325 24.7255 4.90269L24.8854 4.33473C25.4354 2.41285 23.0496 1.03494 21.6596 2.47285L21.2497 2.89482C20.765 3.39679 20.0462 3.59632 19.3722 3.41597C18.6982 3.23562 18.1751 2.70379 18.0059 2.02687L17.8639 1.45491ZM16.5 16.9999H25.9454C25.603 20.4108 23.5366 23.4083 20.4705 24.9415C17.4045 26.4747 13.7666 26.3298 10.8323 24.5575L16.5 16.9999ZM25.9454 15.0001C25.603 11.5892 23.5366 8.59172 20.4705 7.0585C17.4045 5.52528 13.7666 5.67023 10.8323 7.44253L16.5 15.0021H25.9454V15.0001ZM6.00462 16C6.00176 13.2036 7.17369 10.5347 9.23442 8.64446L14.7501 16L9.23442 23.3555C7.24855 21.5297 6.00462 18.9098 6.00462 16Z" fill="white"/>
</svg>
