<svg width="24" height="24" viewBox="0 0 24 24" fill="none" xmlns="http://www.w3.org/2000/svg">
<path fill-rule="evenodd" clip-rule="evenodd" d="M2.82812 0.765296C3.35902 0.235151 4.09188 -0.0416708 4.84066 0.0050961C5.58945 0.051863 6.28217 0.417722 6.743 1.00981L9.43541 4.46897C9.92889 5.10349 10.1029 5.93003 9.9079 6.71007L9.08742 9.99522C9.00114 10.3413 9.10245 10.7073 9.35441 10.9598L13.0398 14.6454C13.2925 14.8979 13.6592 14.9993 14.0058 14.9124L17.2892 14.0919C18.0691 13.8969 18.8953 14.0711 19.5301 14.5644L22.989 17.2555C24.2324 18.2231 24.3464 20.0607 23.2335 21.1722L21.6825 22.7233C20.5726 23.8333 18.9136 24.3209 17.3672 23.7763C13.4091 22.3836 9.81531 20.1174 6.85249 17.146C3.88152 14.1834 1.61557 10.5899 0.222699 6.63206C-0.320284 5.08699 0.167201 3.42642 1.27717 2.31637L2.82812 0.765296Z" fill="white"/>
</svg>
