<svg width="23" height="24" viewBox="0 0 23 24" fill="none" xmlns="http://www.w3.org/2000/svg">
<path fill-rule="evenodd" clip-rule="evenodd" d="M12.5128 23.9559C18.4476 23.4434 22.9991 18.5852 23 12.7619C22.9992 7.68681 19.5202 3.24133 14.5089 1.91219C14.6419 1.45966 14.5495 0.972375 14.2595 0.596433C13.9696 0.220491 13.5157 -0.000396111 13.034 0H9.9675C9.4858 -0.000396111 9.03192 0.220491 8.74193 0.596433C8.45195 0.972375 8.35958 1.45966 8.49253 1.91219C2.74205 3.43556 -0.865618 8.99957 0.179927 14.7325C1.22547 20.4654 6.57793 24.4683 12.5128 23.9559ZM17.4618 6.91176L17.465 6.90994L17.462 6.91144L17.4618 6.91176ZM17.4618 6.91176L9.87551 11.1479L5.53646 18.5674L13.126 14.3294L17.4618 6.91176Z" fill="white"/>
</svg>
